#!OML:ASF H:\BreakDance\Project 1\Capture day 1\Session 1\Male.ASF
:FULLY-SPECIFIED
:DEGREES
609
root 13.3304 16.5286 1.48557 -141.346 -87.2543 152.152
lowerback 3.04565 5.63156 0.407943
upperback 3.54114 7.41037 -7.33179
thorax 3.03005 3.77256 -7.88992
lowerneck -3.67763 1.22878 -0.134548
upperneck -13.3502 1.55696 1.7008
head -3.70013 0.597144 0.557761
rclavicle -1.07344e-014 -3.33958e-014
rhumerus 7.64294 25.0822 -63.8194
rradius 107.575
rwrist -16.6754
rhand -17.9064 8.13119
rfingers 7.12502
rthumb 8.36062 -21.6834
lclavicle -1.07344e-014 -3.33958e-014
lhumerus 22.7576 -29.0951 43.2104
lradius 91.6179
lwrist 9.19264
lhand -27.5878 -40.7736
lfingers 7.12502
lthumb -0.987849 -10.7961
rfemur -29.9493 -38.9701 36.7697
rtibia 52.5197
rfoot -14.3318 -1.85877
rtoes -4.76514
lfemur -47.3916 10.8593 -23.1721
ltibia 57.8428
lfoot -10.4112 3.60475
ltoes -30.6802
610
root 13.2717 16.4861 1.48444 -135.769 -86.7893 146.718
lowerback 2.66026 6.1252 0.305621
upperback 3.43572 8.08204 -7.65652
thorax 3.2719 4.11583 -8.12832
lowerneck -3.58487 0.967129 -0.740367
upperneck -12.2091 1.20996 1.43376
head -3.31432 0.487202 0.577241
rclavicle 7.39479e-014 -1.19271e-013
rhumerus 9.68425 24.4101 -61.7615
rradius 105.119
rwrist -17.0288
rhand -18.0364 7.19139
rfingers 7.12502
rthumb 8.23516 -22.6281
lclavicle 7.39479e-014 -1.19271e-013
lhumerus 25.004 -28.7188 42.0745
lradius 88.3447
lwrist 9.03653
lhand -27.5165 -39.7074
lfingers 7.12502
lthumb -0.918969 -9.72967
rfemur -30.246 -40.6866 38.6379
rtibia 50.4425
rfoot -16.6973 -4.05808
rtoes 0.340114
lfemur -47.6137 11.1413 -24.1305
ltibia 56.8655
lfoot -11.8359 2.30724
ltoes -31.4681
611
root 13.2161 16.4416 1.48011 -132.696 -86.1178 143.854
lowerback 2.17997 6.63419 0.0322061
upperback 3.3266 8.77848 -7.92156
thorax 3.53512 4.46416 -8.1861
lowerneck -3.66412 0.749667 -1.52059
upperneck -10.9072 0.929641 1.16316
head -2.85227 0.408177 0.623621
rclavicle 3.18055e-014 9.54166e-015
rhumerus 11.8004 23.8992 -59.5885
rradius 102.525
rwrist -17.3887
rhand -18.062 6.27264
rfingers 7.12502
rthumb 8.21046 -23.5478
lclavicle 3.18055e-014 9.54166e-015
lhumerus 27.0083 -28.4297 41.0902
lradius 85.2623
lwrist 9.20157
lhand -27.1529 -38.3599
lfingers 7.12502
lthumb -0.567752 -8.3809
rfemur -30.3412 -41.437 40.0985
rtibia 48.5113
rfoot -19.5719 -6.87345
rtoes 5.0111
lfemur -47.7956 11.5539 -25.1375
ltibia 55.6424
lfoot -13.1468 0.543994
ltoes -32.1986
612
root 13.1638 16.3971 1.47241 -131.587 -85.2847 142.973
lowerback 1.67391 7.16851 -0.342278
upperback 3.20686 9.51178 -8.17278
thorax 3.78768 4.82537 -8.1594
lowerneck -3.88108 0.563853 -2.37091
upperneck -9.48598 0.710162 0.952869
head -2.33823 0.347134 0.698852
rclavicle -1.78906e-014 -1.43125e-014
rhumerus 13.8411 23.4916 -57.4594
rradius 99.8623
rwrist -17.6762
rhand -18.0564 5.3442
rfingers 7.12502
rthumb 8.21591 -24.4761
lclavicle -1.78906e-014 -1.43125e-014
lhumerus 28.7546 -28.3064 40.1382
lradius 82.5423
lwrist 9.654
lhand -26.4842 -36.7732
lfingers 7.12502
lthumb 0.0780679 -6.7935
rfemur -30.0496 -41.0627 40.9891
rtibia 46.7196
rfoot -22.6612 -10.1144
rtoes 8.73831
lfemur -47.8976 12.057 -26.1225
ltibia 54.2855
lfoot -14.1686 -1.40556
ltoes -32.7269
613
root 13.1142 16.3532 1.46104 -131.689 -84.3568 143.246
lowerback 1.21262 7.68265 -0.769166
upperback 3.10442 10.2189 -8.40594
thorax 4.01381 5.1691 -8.08244
lowerneck -4.20971 0.432242 -3.24012
upperneck -8.0186 0.58397 0.818326
head -1.80444 0.317218 0.79879
rclavicle -6.55989e-014 7.79236e-014
rhumerus 15.7607 23.2358 -55.4843
rradius 97.2395
rwrist -17.8169
rhand -18.0822 4.32793
rfingers 7.12502
rthumb 8.19097 -25.4933
lclavicle -6.55989e-014 7.79236e-014
lhumerus 30.0966 -28.303 39.1887
lradius 80.3587
lwrist 10.2675
lhand -25.5978 -35.1745
lfingers 7.12502
lthumb 0.934182 -5.19681
rfemur -29.2427 -39.591 41.2367
rtibia 45.0374
rfoot -25.7109 -13.563
rtoes 11.1131
lfemur -47.8445 12.5883 -26.9865
ltibia 52.9356
lfoot -14.8462 -3.21741
ltoes -32.8285
614
root 13.0667 16.3095 1.44861 -132.125 -83.4591 143.758
lowerback 0.803188 8.08345 -1.2323
upperback 3.08006 10.7782 -8.55077
thorax 4.24226 5.43389 -7.89607
lowerneck -4.7337 0.382332 -4.14273
upperneck -6.55115 0.588686 0.698122
head -1.25355 0.339028 0.90856
rclavicle 7.95139e-014 -1.27222e-014
rhumerus 17.6327 23.207 -53.6506
rradius 94.7935
rwrist -17.7195
rhand -18.1747 3.16502
rfingers 7.12502
rthumb 8.1017 -26.6597
lclavicle 7.95139e-014 -1.27222e-014
lhumerus 30.8133 -28.2844 38.3546
lradius 78.8556
lwrist 10.8264
lhand -24.6371 -33.5995
lfingers 7.12502
lthumb 1.86207 -3.62788
rfemur -28.005 -37.2931 40.9681
rtibia 43.4432
rfoot -28.5229 -16.9283
rtoes 12.4943
lfemur -47.6269 13.0062 -27.6464
ltibia 51.7536
lfoot -15.1979 -4.56443
ltoes -32.5177
615
root 13.0202 16.2656 1.43829 -132.335 -82.7465 143.941
lowerback 0.493567 8.33885 -1.59705
upperback 3.1055 11.1425 -8.61413
thorax 4.43674 5.60216 -7.69651
lowerneck -5.24028 0.4111 -4.91701
upperneck -5.22905 0.705154 0.534399
head -0.763225 0.402905 0.987317
rclavicle -1.19271e-015 1.19271e-014
rhumerus 19.209 23.3675 -52.1457
rradius 92.7084
rwrist -17.2553
rhand -18.2949 1.7863
rfingers 7.12502
rthumb 7.98572 -28.0428
lclavicle -1.19271e-015 1.19271e-014
lhumerus 30.8174 -28.3634 37.6501
lradius 78.1568
lwrist 11.2367
lhand -23.7412 -32.2399
lfingers 7.12502
lthumb 2.72728 -2.27758
rfemur -26.5152 -34.5691 40.4083
rtibia 41.947
rfoot -31.034 -19.9284
rtoes 13.376
lfemur -47.2674 13.1693 -28.0444
ltibia 50.8765
lfoot -15.3707 -5.28775
ltoes -31.9069
616
root 12.9734 16.2201 1.43387 -131.824 -82.3708 143.325
lowerback 0.332037 8.48026 -1.65709
upperback 3.09086 11.345 -8.67421
thorax 4.54115 5.70261 -7.69137
lowerneck -5.35022 0.461881 -5.3584
upperneck -4.19671 0.820289 0.316306
head -0.430024 0.456297 0.995926
rclavicle 1.48293e-013 -2.8625e-014
rhumerus 20.0009 23.5808 -51.2975
rradius 91.1492
rwrist -16.2568
rhand -18.3888 0.295682
rfingers 7.12502
rthumb 7.89512 -29.5369
lclavicle 1.48293e-013 -2.8625e-014
lhumerus 30.1982 -28.8425 36.9913
lradius 78.3437
lwrist 11.5158
lhand -23.0399 -31.233
lfingers 7.12502
lthumb 3.40455 -1.28049
rfemur -25.0258 -31.907 39.8093
rtibia 40.5998
rfoot -33.0021 -22.5193
rtoes 13.5293
lfemur -46.8335 12.9384 -28.1722
ltibia 50.3911
lfoot -15.4865 -5.48237
ltoes -30.8474
617
root 12.9259 16.1769 1.43563 -130.481 -82.3949 141.869
lowerback 0.218595 8.48936 -1.42303
upperback 3.04373 11.3681 -8.68672
thorax 4.60788 5.72637 -7.81387
lowerneck -5.05674 0.555349 -5.51974
upperneck -3.49546 0.950987 0.0523872
head -0.265224 0.515198 0.942178
rclavicle -8.42847e-014 7.15625e-015
rhumerus 19.9617 23.8378 -51.1496
rradius 90.224
rwrist -14.7323
rhand -18.3343 -1.1028
rfingers 7.12502
rthumb 7.94767 -30.9334
lclavicle -8.42847e-014 7.15625e-015
lhumerus 28.949 -29.6903 36.5158
lradius 79.3687
lwrist 11.7401
lhand -22.5782 -30.6446
lfingers 7.12502
lthumb 3.85047 -0.699599
rfemur -23.7223 -29.5943 39.3332
rtibia 39.4839
rfoot -34.5772 -24.5075
rtoes 13.728
lfemur -46.4291 12.2964 -28.0537
ltibia 50.2942
lfoot -15.6059 -5.40028
ltoes -29.1508
618
root 12.8765 16.139 1.44203 -128.121 -82.8034 139.419
lowerback 0.114274 8.40754 -0.924768
upperback 2.94146 11.2681 -8.65547
thorax 4.63625 5.70003 -8.04579
lowerneck -4.3129 0.664179 -5.39675
upperneck -3.09514 1.05621 -0.223244
head -0.26515 0.563537 0.833295
rclavicle -9.10434e-014 4.92986e-014
rhumerus 18.9215 24.069 -51.8117
rradius 89.9938
rwrist -12.8096
rhand -18.1054 -2.06744
rfingers 7.12502
rthumb 8.16863 -31.8895
lclavicle -9.10434e-014 4.92986e-014
lhumerus 27.2095 -30.9819 36.2649
lradius 81.1216
lwrist 12.0808
lhand -22.2847 -30.4463
lfingers 7.12502
lthumb 4.13386 -0.506678
rfemur -22.7058 -27.8213 39.0423
rtibia 38.6921
rfoot -35.6063 -25.9001
rtoes 13.5957
lfemur -46.11 11.3285 -27.7426
ltibia 50.5112
lfoot -15.74 -5.31333
ltoes -26.8157
619
root 12.8244 16.1074 1.45121 -124.226 -83.5159 135.453
lowerback -0.0656538 8.20475 -0.326217
upperback 2.87428 11.0124 -8.51436
thorax 4.71442 5.59849 -8.21444
lowerneck -3.40908 0.795849 -5.18374
upperneck -2.85448 1.17715 -0.467643
head -0.339927 0.622511 0.718069
rclavicle 4.53229e-014 -1.59028e-015
rhumerus 17.1557 24.3154 -53.1063
rradius 90.4427
rwrist -10.8429
rhand -17.7629 -2.34254
rfingers 7.12502
rthumb 8.49917 -32.1515
lclavicle 4.53229e-014 -1.59028e-015
lhumerus 24.992 -32.4898 36.3976
lradius 83.4248
lwrist 12.6451
lhand -22.029 -30.6107
lfingers 7.12502
lthumb 4.38075 -0.676048
rfemur -22.0212 -26.7363 38.9164
rtibia 38.3084
rfoot -36.0127 -26.6954
rtoes 12.772
lfemur -45.8759 10.1565 -27.3182
ltibia 50.9096
lfoot -15.8514 -5.35978
ltoes -24.0401
620
root 12.7685 16.0834 1.46183 -117.669 -84.3959 128.792
lowerback -0.33952 7.80153 0.0696602
upperback 2.97948 10.4964 -8.14194
thorax 4.8961 5.35415 -8.02499
lowerneck -2.89307 1.00364 -5.18502
upperneck -2.51224 1.43285 -0.603499
head -0.324795 0.747225 0.675578
rclavicle -1.05356e-013 6.20208e-014
rhumerus 15.1853 24.7394 -54.6728
rradius 91.4714
rwrist -9.25029
rhand -17.3901 -1.83107
rfingers 7.12502
rthumb 8.85896 -31.6251
lclavicle -1.05356e-013 6.20208e-014
lhumerus 22.1958 -33.8218 37.1904
lradius 86.0517
lwrist 13.4291
lhand -21.6817 -30.9883
lfingers 7.12502
lthumb 4.7161 -1.06084
rfemur -21.6446 -26.4357 38.8565
rtibia 38.3985
rfoot -35.8017 -26.8978
rtoes 10.9762
lfemur -45.6563 8.90017 -26.8788
ltibia 51.3408
lfoot -15.7579 -5.51881
ltoes -21.2729
621
root 12.7089 16.0697 1.47089 -108.138 -85.188 119.096
lowerback -0.522848 7.35744 0.315045
upperback 3.11586 9.91584 -7.72918
thorax 5.01588 5.06936 -7.7312
lowerneck -2.48301 1.20484 -5.22296
upperneck -2.09559 1.69173 -0.532263
head -0.271568 0.871931 0.704098
rclavicle -9.26337e-014 7.15625e-015
rhumerus 12.5958 25.1836 -56.8044
rradius 92.9882
rwrist -8.20755
rhand -17.0016 -0.584309
rfingers 7.12502
rthumb 9.23381 -30.3621
lclavicle -9.26337e-014 7.15625e-015
lhumerus 19.1433 -35.2752 38.3683
lradius 88.8515
lwrist 14.4304
lhand -21.1591 -31.5881
lfingers 7.12502
lthumb 5.22073 -1.67245
rfemur -21.5188 -26.8321 38.73
rtibia 39.0041
rfoot -34.986 -26.4912
rtoes 8.16401
lfemur -45.3862 7.78539 -26.5202
ltibia 51.6776
lfoot -15.6602 -5.69138
ltoes -19.4117
622
root 12.6469 16.0687 1.47767 -96.1777 -85.6995 106.929
lowerback -0.56316 6.89733 0.351371
upperback 3.2477 9.30362 -7.30934
thorax 5.01335 4.75742 -7.33886
lowerneck -2.14238 1.39379 -5.35317
upperneck -1.62952 1.94226 -0.261191
head -0.195028 0.991708 0.811046
rclavicle -7.55382e-015 4.53229e-014
rhumerus 9.45061 25.6874 -59.4262
rradius 94.8594
rwrist -7.78335
rhand -16.5506 1.18414
rfingers 7.12502
rthumb 9.66897 -28.5739
lclavicle -7.55382e-015 4.53229e-014
lhumerus 15.8049 -36.7855 39.9956
lradius 91.6738
lwrist 15.464
lhand -20.4413 -32.2688
lfingers 7.12502
lthumb 5.91379 -2.37137
rfemur -21.6451 -27.7783 38.442
rtibia 40.1522
rfoot -33.66 -25.4545
rtoes 4.62908
lfemur -45.0536 6.93794 -26.3201
ltibia 51.845
lfoot -15.5117 -5.76121
ltoes -18.717
